#!OML:ASF E:\inclinewalkrobotboard\Project 1\Capture day 1\Session 1\subject1.ASF
:FULLY-SPECIFIED
:DEGREES
309
root 9.11869 16.5303 7.14509 -167.607 -0.772478 180.023
lowerback -12.6125 0.711924 -6.63946
upperback -0.826895 1.68723 1.22878
thorax 5.97475 0.584286 5.35091
lowerneck -6.01076 -0.0638192 -3.65406
upperneck 6.13126 -0.115867 4.38074
head 3.05404 -0.00111388 2.0789
rclavicle 1.94685e-014 7.82715e-015
rhumerus -52.8154 -46.7994 -53.5364
rradius 15.0586
rwrist 34.9852
rhand -13.8727 -37.8861
rfingers 7.12502
rthumb 12.2519 -67.5072
lclavicle 1.94685e-014 7.82715e-015
lhumerus -30.7902 12.4735 85.3553
lradius 16.2145
lwrist -31.0574
lhand -26.2622 -17.6888
lfingers 7.12502
lthumb 0.292513 12.2907
rfemur -7.46562 2.82763 20.9772
rtibia 7.60228
rfoot 346.528 1.64889
rtoes -23.1229
lfemur -6.61068 -6.08517 -21.8951
ltibia 7.5762
lfoot -15.3103 2.31658
ltoes -57.6624
310
root 9.11744 16.5296 7.13371 -167.672 -0.647046 179.949
lowerback -12.5948 0.737623 -6.69184
upperback -0.816055 1.73183 1.17934
thorax 5.97027 0.605628 5.33488
lowerneck -6.00311 -0.0352757 -3.61547
upperneck 6.11018 -0.0850291 4.4282
head 3.04407 0.0163979 2.08875
rclavicle 2.59787e-014 7.92654e-015
rhumerus -52.9324 -46.9278 -53.4103
rradius 15.0171
rwrist 35.1857
rhand -13.8837 -38.1261
rfingers 7.12502
rthumb 12.2412 -67.7479
lclavicle 2.59787e-014 7.92654e-015
lhumerus -30.8519 12.22 85.4493
lradius 16.3586
lwrist -30.7705
lhand -26.4871 -18.0885
lfingers 7.12502
lthumb 0.0753187 11.8912
rfemur -7.35744 2.86383 20.8744
rtibia 7.60135
rfoot 346.473 1.8031
rtoes -23.0652
lfemur -6.42956 -6.11219 -22.0385
ltibia 7.49339
lfoot -15.3371 2.43744
ltoes -57.5437
311
root 9.11616 16.5295 7.12319 -167.714 -0.556751 179.983
lowerback -12.6263 0.76549 -6.65086
upperback -0.789484 1.76681 1.18748
thorax 6.01237 0.621863 5.32786
lowerneck -6.02039 -0.0419849 -3.56882
upperneck 6.09585 -0.0927204 4.37639
head 3.04194 0.0123584 2.06243
rclavicle 6.69345e-015 -9.74045e-015
rhumerus -53.0728 -47.179 -53.1109
rradius 14.9175
rwrist 35.542
rhand -13.864 -38.17
rfingers 7.12502
rthumb 12.2602 -67.7906
lclavicle 6.69345e-015 -9.74045e-015
lhumerus -30.8343 12.0465 85.5714
lradius 16.4924
lwrist -30.5282
lhand -26.6382 -18.2794
lfingers 7.12502
lthumb -0.0706412 11.7003
rfemur -7.27992 2.90936 20.8965
rtibia 7.58897
rfoot 346.456 1.94596
rtoes -22.8387
lfemur -6.27267 -6.11744 -22.0315
ltibia 7.38769
lfoot -15.3368 2.44186
ltoes -57.2483
312
root 9.11557 16.5289 7.11375 -167.717 -0.509309 180.009
lowerback -12.6952 0.785134 -6.61299
upperback -0.760697 1.79363 1.19486
thorax 6.07887 0.632784 5.32186
lowerneck -5.98969 -0.0427587 -3.5704
upperneck 6.02956 -0.0911753 4.36976
head 3.01334 0.0129039 2.05928
rclavicle -4.9634e-015 4.79568e-015
rhumerus -53.14 -47.3676 -52.9215
rradius 14.8699
rwrist 35.7807
rhand -13.7836 -38.1701
rfingers 7.12502
rthumb 12.3378 -67.7861
lclavicle -4.9634e-015 4.79568e-015
lhumerus -30.7094 11.7662 85.7792
lradius 16.6854
lwrist -30.1925
lhand -26.4415 -17.8921
lfingers 7.12502
lthumb 0.119317 12.0876
rfemur -7.25622 2.92288 20.9219
rtibia 7.60399
rfoot 346.432 1.99074
rtoes -22.4847
lfemur -6.18329 -6.13966 -22.0158
ltibia 7.3053
lfoot -15.3605 2.45803
ltoes -57.1032
313
root 9.11531 16.5274 7.10347 -167.717 -0.491234 179.961
lowerback -12.7701 0.780591 -6.64177
upperback -0.726373 1.80022 1.17938
thorax 6.15634 0.63173 5.32633
lowerneck -6.18052 -0.0150805 -3.60568
upperneck 6.14651 -0.0540192 4.43309
head 3.08896 0.0345484 2.09249
rclavicle -3.54737e-014 2.48481e-017
rhumerus -53.0934 -47.4087 -52.9406
rradius 14.8652
rwrist 35.8435
rhand -13.7986 -38.0981
rfingers 7.12502
rthumb 12.3233 -67.715
lclavicle -3.54737e-014 2.48481e-017
lhumerus -30.5939 11.5837 85.9377
lradius 16.8551
lwrist -30.0293
lhand -26.3338 -17.6632
lfingers 7.12502
lthumb 0.223338 12.3164
rfemur -7.20271 2.90127 20.8712
rtibia 7.61011
rfoot 346.388 1.93928
rtoes -22.369
lfemur -6.1174 -6.18292 -22.0941
ltibia 7.25754
lfoot -15.3629 2.50796
ltoes -57.1146
314
root 9.11432 16.5254 7.09407 -167.706 -0.473102 179.904
lowerback -12.8422 0.773455 -6.66965
upperback -0.709488 1.80122 1.16663
thorax 6.21422 0.628702 5.3317
lowerneck -6.43188 0.00047239 -3.605
upperneck 6.33867 -0.031485 4.42582
head 3.20202 0.0479471 2.09668
rclavicle -2.37983e-014 2.38542e-015
rhumerus -53.134 -47.4804 -52.8507
rradius 14.8433
rwrist 36.0622
rhand -13.8383 -37.9826
rfingers 7.12502
rthumb 12.285 -67.6017
lclavicle -2.37983e-014 2.38542e-015
lhumerus -30.4982 11.7869 85.9099
lradius 16.7976
lwrist -30.3167
lhand -26.4281 -17.6678
lfingers 7.12502
lthumb 0.132297 12.3119
rfemur -7.16838 2.84891 20.8051
rtibia 7.60379
rfoot 346.359 1.93196
rtoes -22.4038
lfemur -6.08616 -6.21114 -22.1867
ltibia 7.24191
lfoot -15.3566 2.54283
ltoes -57.1709
315
root 9.11353 16.5245 7.08677 -167.683 -0.461414 179.889
lowerback -12.8858 0.774164 -6.66684
upperback -0.723863 1.80228 1.17364
thorax 6.22285 0.628513 5.33897
lowerneck -6.47425 -0.0225965 -3.61284
upperneck 6.40002 -0.0578241 4.37296
head 3.23208 0.033247 2.08046
rclavicle 9.21864e-015 -1.64991e-014
rhumerus -53.3076 -47.6096 -52.5884
rradius 14.808
rwrist 36.4706
rhand -13.7972 -37.8048
rfingers 7.12502
rthumb 12.3246 -67.4216
lclavicle 9.21864e-015 -1.64991e-014
lhumerus -30.4482 12.0287 85.8385
lradius 16.6962
lwrist -30.6377
lhand -26.5056 -17.6384
lfingers 7.12502
lthumb 0.05741 12.3414
rfemur -7.17163 2.86968 20.7882
rtibia 7.59858
rfoot 346.321 1.94325
rtoes -22.1855
lfemur -6.08893 -6.26474 -22.2184
ltibia 7.24716
lfoot -15.3675 2.66637
ltoes -57.3651
316
root 9.11391 16.525 7.07916 -167.701 -0.478418 179.871
lowerback -12.8885 0.771238 -6.6911
upperback -0.735754 1.79956 1.19429
thorax 6.21055 0.626701 5.37427
lowerneck -6.46856 -0.0583739 -3.70888
upperneck 6.44408 -0.0997649 4.39299
head 3.24914 0.0105754 2.1035
rclavicle -2.76311e-014 6.4605e-015
rhumerus -53.4576 -47.6782 -52.3591
rradius 14.7817
rwrist 36.7116
rhand -13.8779 -37.5158
rfingers 7.12502
rthumb 12.2468 -67.1373
lclavicle -2.76311e-014 6.4605e-015
lhumerus -30.4773 12.1443 85.7974
lradius 16.6591
lwrist -30.8328
lhand -26.5724 -18.0138
lfingers 7.12502
lthumb -0.00708536 11.9659
rfemur -7.10322 2.92326 20.7782
rtibia 7.5607
rfoot 346.308 1.93054
rtoes -21.4912
lfemur -6.04397 -6.29088 -22.2433
ltibia 7.23888
lfoot -15.3075 2.79146
ltoes -57.7325
317
root 9.1147 16.5253 7.07065 -167.706 -0.519316 179.847
lowerback -12.9274 0.747759 -6.70622
upperback -0.73891 1.77182 1.20424
thorax 6.23208 0.611378 5.3901
lowerneck -6.42974 -0.0429327 -3.80065
upperneck 6.43077 -0.0760399 4.45443
head 3.23734 0.0218332 2.14163
rclavicle -2.07792e-014 -4.91992e-015
rhumerus -53.432 -47.6696 -52.3731
rradius 14.7865
rwrist 36.7362
rhand -13.9381 -37.5429
rfingers 7.12502
rthumb 12.1888 -67.1678
lclavicle -2.07792e-014 -4.91992e-015
lhumerus -30.4926 12.0249 85.8259
lradius 16.6666
lwrist -30.8191
lhand -26.6065 -18.3085
lfingers 7.12502
lthumb -0.0400315 11.6713
rfemur -7.01802 2.92436 20.7676
rtibia 7.48782
rfoot 346.334 1.92122
rtoes -20.8632
lfemur -6.01966 -6.23876 -22.2684
ltibia 7.25548
lfoot -15.2595 2.72173
ltoes -57.8546
318
root 9.11519 16.5245 7.06403 -167.675 -0.533575 179.808
lowerback -12.9691 0.712714 -6.72087
upperback -0.757287 1.72797 1.20291
thorax 6.24144 0.588758 5.39046
lowerneck -6.35908 0.0227339 -3.83766
upperneck 6.37756 0.0117321 4.49491
head 3.20187 0.0652418 2.16453
rclavicle -2.55873e-014 -5.46658e-016
rhumerus -53.1455 -47.4494 -52.7743
rradius 14.901
rwrist 36.521
rhand -13.8488 -37.7857
rfingers 7.12502
rthumb 12.2749 -67.4055
lclavicle -2.55873e-014 -5.46658e-016
lhumerus -30.4925 11.7737 85.9241
lradius 16.7492
lwrist -30.5723
lhand -26.483 -18.0998
lfingers 7.12502
lthumb 0.079233 11.8799
rfemur -7.0084 2.901 20.7281
rtibia 7.47474
rfoot 346.302 1.9096
rtoes -20.9605
lfemur -6.04048 -6.24126 -22.3148
ltibia 7.2843
lfoot -15.3295 2.60617
ltoes -57.5703
319
root 9.11563 16.5227 7.05902 -167.662 -0.548112 179.729
lowerback -12.9295 0.691911 -6.77849
upperback -0.814018 1.70082 1.20203
thorax 6.16055 0.577377 5.41485
lowerneck -6.28894 0.03892 -3.93062
upperneck 6.42694 0.0349801 4.52567
head 3.20524 0.0742714 2.19305
rclavicle 1.19271e-015 7.50412e-015
rhumerus -52.9218 -47.1355 -53.1313
rradius 15.0364
rwrist 36.1165
rhand -13.811 -37.9754
rfingers 7.12502
rthumb 12.3113 -67.5929
lclavicle 1.19271e-015 7.50412e-015
lhumerus -30.5724 11.6756 85.992
lradius 16.8302
lwrist -30.4139
lhand -26.2551 -17.7127
lfingers 7.12502
lthumb 0.299406 12.2668
rfemur -7.00407 2.86088 20.6406
rtibia 7.5149
rfoot 346.23 1.87218
rtoes -21.5345
lfemur -6.03867 -6.29374 -22.4104
ltibia 7.29339
lfoot -15.4036 2.5237
ltoes -57.2324
320
root 9.11599 16.5209 7.05279 -167.679 -0.563897 179.694
lowerback -12.8669 0.702036 -6.7951
upperback -0.867665 1.70734 1.20732
thorax 6.06643 0.584334 5.42759
lowerneck -6.31668 -0.0413741 -4.05834
upperneck 6.68679 -0.0706439 4.52434
head 3.30647 0.0169866 2.21568
rclavicle 1.49089e-015 4.17448e-015
rhumerus -52.9166 -47.0378 -53.1381
rradius 15.0047
rwrist 35.8765
rhand -13.7994 -38.3113
rfingers 7.12502
rthumb 12.3225 -67.9281
lclavicle 1.49089e-015 4.17448e-015
lhumerus -30.6869 11.5722 86.0601
lradius 16.927
lwrist -30.3581
lhand -26.1588 -17.2283
lfingers 7.12502
lthumb 0.392405 12.751
rfemur -6.97064 2.88103 20.6181
rtibia 7.56852
rfoot 346.17 1.79837
rtoes -21.6151
lfemur -6.02067 -6.31055 -22.4586
ltibia 7.34453
lfoot -15.4362 2.54589
ltoes -57.3355
321
root 9.1156 16.5203 7.04729 -167.734 -0.528554 179.685
lowerback -12.819 0.730604 -6.782
upperback -0.858539 1.74195 1.20142
thorax 6.04509 0.602983 5.41824
lowerneck -6.73859 -0.00944929 -3.87653
upperneck 6.94205 -0.0274667 4.38959
head 3.47183 0.0422491 2.14749
rclavicle -2.76683e-014 -1.68967e-015
rhumerus -52.9643 -47.1559 -53.003
rradius 14.933
rwrist 35.9936
rhand -13.7033 -38.4534
rfingers 7.12502
rthumb 12.4151 -68.0647
lclavicle -2.76683e-014 -1.68967e-015
lhumerus -30.6978 11.4979 86.1068
lradius 16.9408
lwrist -30.3889
lhand -26.2165 -16.9448
lfingers 7.12502
lthumb 0.336644 13.0347
rfemur -6.91725 2.94956 20.613
rtibia 7.60833
rfoot 346.144 1.73988
rtoes -21.1744
lfemur -5.97604 -6.32364 -22.4886
ltibia 7.42324
lfoot -15.4726 2.68434
ltoes -57.6811
322
root 9.11564 16.5207 7.04404 -167.776 -0.490108 179.667
lowerback -12.7711 0.753585 -6.77567
upperback -0.856558 1.77017 1.18302
thorax 6.01721 0.618713 5.39803
lowerneck -6.69727 -0.00350265 -3.79261
upperneck 6.82808 -0.0225031 4.36321
head 3.42298 0.0462533 2.12103
rclavicle -1.04548e-014 -8.94531e-016
rhumerus -53.1145 -47.3335 -52.7765
rradius 14.9452
rwrist 36.3693
rhand -13.8321 -37.9902
rfingers 7.12502
rthumb 12.291 -67.609
lclavicle -1.04548e-014 -8.94531e-016
lhumerus -30.6555 11.5218 86.0813
lradius 16.7815
lwrist -30.4972
lhand -26.2646 -16.8575
lfingers 7.12502
lthumb 0.290199 13.122
rfemur -6.88395 3.00651 20.5858
rtibia 7.60967
rfoot 346.166 1.74209
rtoes -20.6949
lfemur -5.94158 -6.33779 -22.5144
ltibia 7.46658
lfoot -15.5159 2.74611
ltoes -57.7139
